<svg width="20" height="24" viewBox="0 0 20 24" fill="none" xmlns="http://www.w3.org/2000/svg">
<path d="M19.728 20.7495L15.8332 16.0766C15.6574 15.8656 15.4191 15.7485 15.1691 15.7485H14.5323C15.6105 14.0939 16.2512 12.0129 16.2512 9.74905C16.2512 4.36364 12.6142 0 8.12559 0C3.63698 0 0 4.36364 0 9.74905C0 15.1345 3.63698 19.4981 8.12559 19.4981C10.0125 19.4981 11.747 18.7294 13.126 17.4358V18.1998C13.126 18.4998 13.2236 18.7857 13.3994 18.9966L17.2942 23.6696C17.6614 24.1101 18.2552 24.1101 18.6185 23.6696L19.7241 22.3431C20.0913 21.9025 20.0913 21.1901 19.728 20.7495ZM8.12559 15.7485C5.36367 15.7485 3.12523 13.0675 3.12523 9.74905C3.12523 6.43531 5.35977 3.74963 8.12559 3.74963C10.8875 3.74963 13.126 6.43062 13.126 9.74905C13.126 13.0628 10.8914 15.7485 8.12559 15.7485Z" fill="black"/>
</svg>
